<svg id="visual" viewBox="0 0 1280 720" width="1280" height="720" xmlns="http://www.w3.org/2000/svg" xmlns:xlink="http://www.w3.org/1999/xlink" version="1.1"><rect x="0" y="0" width="1280" height="720" fill="#1f2029"></rect><path d="M0 489L30.5 492.8C61 496.7 122 504.3 183 493C244 481.7 305 451.3 366 442.5C427 433.7 488 446.3 548.8 455.3C609.7 464.3 670.3 469.7 731.2 464.3C792 459 853 443 914 450.3C975 457.7 1036 488.3 1097 500C1158 511.7 1219 504.3 1249.5 500.7L1280 497L1280 721L1249.5 721C1219 721 1158 721 1097 721C1036 721 975 721 914 721C853 721 792 721 731.2 721C670.3 721 609.7 721 548.8 721C488 721 427 721 366 721C305 721 244 721 183 721C122 721 61 721 30.5 721L0 721Z" fill="#36587f"></path><path d="M0 524L30.5 529.2C61 534.3 122 544.7 183 553.2C244 561.7 305 568.3 366 569.3C427 570.3 488 565.7 548.8 551.7C609.7 537.7 670.3 514.3 731.2 501C792 487.7 853 484.3 914 485.7C975 487 1036 493 1097 506C1158 519 1219 539 1249.5 549L1280 559L1280 721L1249.5 721C1219 721 1158 721 1097 721C1036 721 975 721 914 721C853 721 792 721 731.2 721C670.3 721 609.7 721 548.8 721C488 721 427 721 366 721C305 721 244 721 183 721C122 721 61 721 30.5 721L0 721Z" fill="#436d9e"></path><path d="M0 569L30.5 563.5C61 558 122 547 183 542.3C244 537.7 305 539.3 366 537.7C427 536 488 531 548.8 529.5C609.7 528 670.3 530 731.2 541.7C792 553.3 853 574.7 914 575.5C975 576.3 1036 556.7 1097 544.8C1158 533 1219 529 1249.5 527L1280 525L1280 721L1249.5 721C1219 721 1158 721 1097 721C1036 721 975 721 914 721C853 721 792 721 731.2 721C670.3 721 609.7 721 548.8 721C488 721 427 721 366 721C305 721 244 721 183 721C122 721 61 721 30.5 721L0 721Z" fill="#4b7bb2"></path><path d="M0 578L30.5 587.2C61 596.3 122 614.7 183 618C244 621.3 305 609.7 366 608.8C427 608 488 618 548.8 622.2C609.7 626.3 670.3 624.7 731.2 625.3C792 626 853 629 914 630.8C975 632.7 1036 633.3 1097 630.3C1158 627.3 1219 620.7 1249.5 617.3L1280 614L1280 721L1249.5 721C1219 721 1158 721 1097 721C1036 721 975 721 914 721C853 721 792 721 731.2 721C670.3 721 609.7 721 548.8 721C488 721 427 721 366 721C305 721 244 721 183 721C122 721 61 721 30.5 721L0 721Z" fill="#436d9e"></path><path d="M0 675L30.5 673.2C61 671.3 122 667.7 183 667.8C244 668 305 672 366 669C427 666 488 656 548.8 655.2C609.7 654.3 670.3 662.7 731.2 666.8C792 671 853 671 914 667.5C975 664 1036 657 1097 658.7C1158 660.3 1219 670.7 1249.5 675.8L1280 681L1280 721L1249.5 721C1219 721 1158 721 1097 721C1036 721 975 721 914 721C853 721 792 721 731.2 721C670.3 721 609.7 721 548.8 721C488 721 427 721 366 721C305 721 244 721 183 721C122 721 61 721 30.5 721L0 721Z" fill="#36587f"></path></svg>